<svg width="21" height="20" viewBox="0 0 21 20" fill="none" xmlns="http://www.w3.org/2000/svg">
<rect width="21" height="20" fill="none"/>
<g clip-path="url(#clip0_0_1)">
<path d="M10.333 1.802C13.003 1.802 13.32 1.812 14.375 1.861C17.085 1.984 18.351 3.27 18.475 5.96C18.523 7.014 18.532 7.33 18.532 10C18.532 12.672 18.522 12.988 18.474 14.042C18.35 16.729 17.088 18.017 14.375 18.141C13.32 18.189 13.005 18.199 10.333 18.199C7.66302 18.199 7.34702 18.189 6.29302 18.141C3.57601 18.017 2.31701 16.725 2.19301 14.041C2.14501 12.987 2.13501 12.671 2.13501 10C2.13501 7.33 2.14501 7.014 2.19301 5.96C2.31701 3.27 3.58001 1.983 6.29302 1.86C7.34702 1.812 7.66302 1.802 10.333 1.802ZM10.333 0C7.61802 0 7.27801 0.012 6.21101 0.06C2.57901 0.227 0.560015 2.242 0.394015 5.877C0.345015 6.944 0.334015 7.284 0.334015 10C0.334015 12.716 0.345015 13.057 0.394015 14.123C0.560015 17.755 2.57501 19.773 6.21001 19.94C7.27801 19.988 7.61802 20 10.333 20C13.049 20 13.39 19.988 14.457 19.94C18.085 19.773 20.108 17.758 20.273 14.123C20.322 13.057 20.333 12.716 20.333 10C20.333 7.284 20.322 6.944 20.273 5.878C20.11 2.249 18.093 0.228 14.458 0.06C13.39 0.01 13.049 0 10.333 0ZM10.333 4.865C8.97113 4.865 7.66502 5.40601 6.70202 6.36901C5.73902 7.33201 5.19801 8.63811 5.19801 10C5.19801 11.3619 5.73902 12.668 6.70202 13.631C7.66502 14.594 8.97113 15.135 10.333 15.135C11.6949 15.135 13.001 14.594 13.964 13.631C14.927 12.668 15.468 11.3619 15.468 10C15.468 8.63811 14.927 7.33201 13.964 6.36901C13.001 5.40601 11.6949 4.865 10.333 4.865ZM10.333 13.333C9.44905 13.333 8.60129 12.9818 7.97623 12.3568C7.35117 11.7317 7.00001 10.884 7.00001 10C7.00001 9.11603 7.35117 8.26827 7.97623 7.64321C8.60129 7.01815 9.44905 6.667 10.333 6.667C11.217 6.667 12.0647 7.01815 12.6898 7.64321C13.3149 8.26827 13.666 9.11603 13.666 10C13.666 10.884 13.3149 11.7317 12.6898 12.3568C12.0647 12.9818 11.217 13.333 10.333 13.333ZM15.672 3.463C15.5144 3.46293 15.3584 3.49391 15.2128 3.55415C15.0671 3.6144 14.9348 3.70273 14.8233 3.81412C14.7119 3.9255 14.6234 4.05775 14.5631 4.20332C14.5027 4.34888 14.4716 4.50491 14.4715 4.6625C14.4714 4.82009 14.5024 4.97614 14.5627 5.12176C14.6229 5.26737 14.7112 5.3997 14.8226 5.51117C14.934 5.62265 15.0663 5.7111 15.2118 5.77146C15.3574 5.83183 15.5134 5.86293 15.671 5.863C15.9893 5.863 16.2945 5.73657 16.5195 5.51153C16.7446 5.28648 16.871 4.98126 16.871 4.663C16.871 4.34474 16.7446 4.03952 16.5195 3.81447C16.2945 3.58943 15.9893 3.463 15.671 3.463H15.672Z" fill="#31D35C"/>
</g>
<defs>
<clipPath id="clip0_0_1">
<rect width="21" height="20" fill="white"/>
</clipPath>
</defs>
</svg>
