<svg width="21" height="18" viewBox="0 0 21 18" fill="none" xmlns="http://www.w3.org/2000/svg">
<rect width="21" height="18" fill="none"/>
<g clip-path="url(#clip0_0_1)">
<path d="M20.667 2.797C19.918 3.12897 19.1235 3.34673 18.31 3.443C19.1671 2.93062 19.8084 2.1237 20.114 1.173C19.3084 1.65106 18.4271 1.98791 17.508 2.169C17.1242 1.75926 16.6603 1.43279 16.1451 1.20985C15.6299 0.986902 15.0744 0.872246 14.513 0.872997C11.864 0.872997 9.91798 3.345 10.516 5.911C8.88455 5.82936 7.28852 5.4055 5.83154 4.66693C4.37457 3.92837 3.08923 2.89161 2.05899 1.624C1.53473 2.52747 1.37424 3.5967 1.61015 4.61427C1.84606 5.63184 2.46066 6.52137 3.32899 7.102C2.67735 7.08208 2.03993 6.90653 1.46999 6.59C1.42499 8.491 2.78699 10.27 4.75999 10.665C4.1557 10.8291 3.52193 10.853 2.90699 10.735C3.16888 11.5506 3.67933 12.2639 4.36684 12.775C5.05435 13.286 5.88448 13.5693 6.74099 13.585C5.02115 14.9341 2.83623 15.5455 0.665985 15.285C2.54227 16.4904 4.72587 17.1302 6.95599 17.128C14.574 17.128 18.878 10.694 18.618 4.923C19.4213 4.34211 20.1147 3.6229 20.666 2.799L20.667 2.797Z" fill="#31D35C"/>
</g>
<defs>
<clipPath id="clip0_0_1">
<rect width="21" height="18" fill="white"/>
</clipPath>
</defs>
</svg>
